<svg width="19" height="22" viewBox="0 0 19 22" fill="none" xmlns="http://www.w3.org/2000/svg">
<path fill-rule="evenodd" clip-rule="evenodd" d="M15.3582 6.59912C15.3582 9.77476 12.7838 12.3491 9.60815 12.3491C6.43252 12.3491 3.85815 9.77476 3.85815 6.59912C3.85815 3.42348 6.43252 0.849121 9.60815 0.849121C12.7838 0.849121 15.3582 3.42348 15.3582 6.59912ZM13.3582 6.59912C13.3582 8.67019 11.6792 10.3491 9.60815 10.3491C7.53709 10.3491 5.85815 8.67019 5.85815 6.59912C5.85815 4.52805 7.53709 2.84912 9.60815 2.84912C11.6792 2.84912 13.3582 4.52805 13.3582 6.59912Z" fill="white"/>
<path d="M0.520516 20.5719C0.445589 20.8174 0.582491 21.0741 0.823674 21.1619L1.75686 21.5016C2.04011 21.6047 2.34835 21.4348 2.43676 21.1466C3.37768 18.0793 6.23247 15.8491 9.60814 15.8491C12.9838 15.8491 15.8386 18.0793 16.7796 21.1466C16.868 21.4348 17.1762 21.6047 17.4595 21.5016L18.3926 21.1619C18.6338 21.0741 18.7707 20.8174 18.6958 20.5719C17.5079 16.6801 13.8886 13.8491 9.60814 13.8491C5.32765 13.8491 1.70838 16.6801 0.520516 20.5719Z" fill="white"/>
</svg>
