<svg width="43" height="42" viewBox="0 0 43 42" fill="none" xmlns="http://www.w3.org/2000/svg">
<g filter="url(#filter0_d_5_975)">
<path fill-rule="evenodd" clip-rule="evenodd" d="M21.8242 33.3467C21.7164 33.3483 21.6083 33.3491 21.5 33.3491C11.835 33.3491 4 26.8573 4 18.8491C4 10.841 11.835 4.34912 21.5 4.34912C31.165 4.34912 39 10.841 39 18.8491C39 20.8744 38.4989 22.8027 37.5938 24.5535C36.3794 27.0288 34.5051 29.2379 32.472 31.1436C29.3743 34.0472 25.7901 36.2391 23.2378 37.4744C22.5627 37.8012 21.8242 37.2895 21.8242 36.577V33.3467ZM15.5 19.5991C15.5 20.9798 14.3807 22.0991 13 22.0991C11.6193 22.0991 10.5 20.9798 10.5 19.5991C10.5 18.2184 11.6193 17.0991 13 17.0991C14.3807 17.0991 15.5 18.2184 15.5 19.5991ZM21.5 22.0991C22.8807 22.0991 24 20.9798 24 19.5991C24 18.2184 22.8807 17.0991 21.5 17.0991C20.1193 17.0991 19 18.2184 19 19.5991C19 20.9798 20.1193 22.0991 21.5 22.0991ZM32.5 19.5991C32.5 20.9798 31.3807 22.0991 30 22.0991C28.6193 22.0991 27.5 20.9798 27.5 19.5991C27.5 18.2184 28.6193 17.0991 30 17.0991C31.3807 17.0991 32.5 18.2184 32.5 19.5991Z" fill="#FBFBFB"/>
<path fill-rule="evenodd" clip-rule="evenodd" d="M21.5 33.3491C31.165 33.3491 39 26.8573 39 18.8491C39 10.841 31.165 4.34912 21.5 4.34912C11.835 4.34912 4 10.841 4 18.8491C4 26.8573 11.835 33.3491 21.5 33.3491ZM13 22.0991C14.3807 22.0991 15.5 20.9798 15.5 19.5991C15.5 18.2184 14.3807 17.0991 13 17.0991C11.6193 17.0991 10.5 18.2184 10.5 19.5991C10.5 20.9798 11.6193 22.0991 13 22.0991ZM24 19.5991C24 20.9798 22.8807 22.0991 21.5 22.0991C20.1193 22.0991 19 20.9798 19 19.5991C19 18.2184 20.1193 17.0991 21.5 17.0991C22.8807 17.0991 24 18.2184 24 19.5991ZM30 22.0991C31.3807 22.0991 32.5 20.9798 32.5 19.5991C32.5 18.2184 31.3807 17.0991 30 17.0991C28.6193 17.0991 27.5 18.2184 27.5 19.5991C27.5 20.9798 28.6193 22.0991 30 22.0991Z" fill="white"/>
</g>
<defs>
<filter id="filter0_d_5_975" x="0" y="0.679121" width="43" height="41.2261" filterUnits="userSpaceOnUse" color-interpolation-filters="sRGB">
<feFlood flood-opacity="0" result="BackgroundImageFix"/>
<feColorMatrix in="SourceAlpha" type="matrix" values="0 0 0 0 0 0 0 0 0 0 0 0 0 0 0 0 0 0 127 0" result="hardAlpha"/>
<feOffset dy="0.33"/>
<feGaussianBlur stdDeviation="2"/>
<feColorMatrix type="matrix" values="0 0 0 0 0 0 0 0 0 0 0 0 0 0 0 0 0 0 0.1 0"/>
<feBlend mode="normal" in2="BackgroundImageFix" result="effect1_dropShadow_5_975"/>
<feBlend mode="normal" in="SourceGraphic" in2="effect1_dropShadow_5_975" result="shape"/>
</filter>
</defs>
</svg>
