<svg width="21" height="22" viewBox="0 0 21 22" fill="none" xmlns="http://www.w3.org/2000/svg">
<path fill-rule="evenodd" clip-rule="evenodd" d="M14.384 17.0615C12.8826 18.1841 11.019 18.8491 9 18.8491C4.02954 18.8491 0 14.8196 0 9.84912C0 4.87866 4.02954 0.849121 9 0.849121C13.9705 0.849121 18 4.87866 18 9.84912C18 12.0798 17.1885 14.1211 15.8445 15.6936L20.2915 20.1406C20.4868 20.3359 20.4868 20.6526 20.2915 20.8477L19.5845 21.5549C19.3892 21.7502 19.0725 21.7502 18.8774 21.5549L14.384 17.0615ZM16 9.84912C16 13.7151 12.866 16.8491 9 16.8491C5.13403 16.8491 2 13.7151 2 9.84912C2 5.98315 5.13403 2.84912 9 2.84912C12.866 2.84912 16 5.98315 16 9.84912Z" fill="#161722"/>
</svg>
