<svg width="44" height="41" viewBox="0 0 44 41" fill="none" xmlns="http://www.w3.org/2000/svg">
<g filter="url(#filter0_d_5_980)">
<path d="M20.0611 35.6671C21.0718 36.3886 22.4282 36.3886 23.4389 35.6671C28.4905 32.0609 33.3281 27.9121 36.6744 22.6029C38.3509 19.9431 39.0537 17.792 39.3301 16.0331C39.4416 15.4138 39.5 14.7749 39.5 14.1217C39.5 8.4483 35.097 3.84912 29.6655 3.84912C26.4197 3.84912 23.5411 5.49166 21.75 8.0244C19.9589 5.49166 17.0803 3.84912 13.8345 3.84912C8.40304 3.84912 4 8.4483 4 14.1217C4 14.7749 4.05836 15.4138 4.16994 16.0331C4.44634 17.792 5.14906 19.9431 6.82555 22.6029C10.1719 27.9121 15.0095 32.0609 20.0611 35.6671Z" fill="#FBFBFB"/>
<path d="M20.0611 31.3491C21.0718 32.0707 22.4282 32.0707 23.4389 31.3491C29 28.3491 31 27.3491 36.6744 22.6029C38.3509 19.9431 39.0537 17.792 39.3301 16.0331C39.4416 15.4138 39.5 14.7749 39.5 14.1217C39.5 8.4483 35.097 3.84912 29.6655 3.84912C26.4197 3.84912 23.5411 5.49166 21.75 8.0244C19.9589 5.49166 17.0803 3.84912 13.8345 3.84912C8.40304 3.84912 4 8.4483 4 14.1217C4 14.7749 4.05836 15.4138 4.16994 16.0331C4.44634 17.792 5.14906 19.9431 6.82555 22.6029C13 27.3491 15 28.3491 20.0611 31.3491Z" fill="white"/>
</g>
<defs>
<filter id="filter0_d_5_980" x="0" y="0.179121" width="43.5" height="40.3591" filterUnits="userSpaceOnUse" color-interpolation-filters="sRGB">
<feFlood flood-opacity="0" result="BackgroundImageFix"/>
<feColorMatrix in="SourceAlpha" type="matrix" values="0 0 0 0 0 0 0 0 0 0 0 0 0 0 0 0 0 0 127 0" result="hardAlpha"/>
<feOffset dy="0.33"/>
<feGaussianBlur stdDeviation="2"/>
<feColorMatrix type="matrix" values="0 0 0 0 0 0 0 0 0 0 0 0 0 0 0 0 0 0 0.1 0"/>
<feBlend mode="normal" in2="BackgroundImageFix" result="effect1_dropShadow_5_980"/>
<feBlend mode="normal" in="SourceGraphic" in2="effect1_dropShadow_5_980" result="shape"/>
</filter>
</defs>
</svg>
