<svg width="24" height="22" viewBox="0 0 24 22" fill="none" xmlns="http://www.w3.org/2000/svg">
<path fill-rule="evenodd" clip-rule="evenodd" d="M12.6011 1.02296C12.323 0.791178 11.919 0.791175 11.6408 1.02296L0.861809 10.0055C0.143294 10.6042 0.566697 11.7737 1.50199 11.7737H3.14534L3.55034 19.8736C3.60356 20.938 4.48209 21.7737 5.54784 21.7737H10.371C10.7852 21.7737 11.121 21.4379 11.121 21.0237V14.7737C11.121 14.4976 11.3448 14.2737 11.621 14.2737H12.621C12.8971 14.2737 13.121 14.4976 13.121 14.7737V21.0237C13.121 21.4379 13.4568 21.7737 13.871 21.7737H18.6941C19.7598 21.7737 20.6384 20.938 20.6916 19.8736L21.0966 11.7737H22.7399C23.6752 11.7737 24.0986 10.6042 23.3801 10.0055L12.6011 1.02296Z" fill="white"/>
</svg>
