<svg width="32" height="30" viewBox="0 0 32 30" fill="none" xmlns="http://www.w3.org/2000/svg">
<g filter="url(#filter0_d_5_251)">
<path fill-rule="evenodd" clip-rule="evenodd" d="M16.6011 1.02296C16.323 0.791178 15.919 0.791175 15.6408 1.02296L4.86181 10.0055C4.14329 10.6042 4.5667 11.7737 5.50199 11.7737H7.14534L7.55034 19.8736C7.60356 20.938 8.48209 21.7737 9.54784 21.7737H22.6941C23.7598 21.7737 24.6384 20.938 24.6916 19.8736L25.0966 11.7737H26.7399C27.6752 11.7737 28.0986 10.6042 27.3801 10.0055L16.6011 1.02296ZM9.07159 10.2487C9.05829 9.98262 8.83865 9.77369 8.57222 9.77369H8.26404L16.121 3.22626L23.9779 9.77369H23.6697C23.4033 9.77369 23.1836 9.98262 23.1703 10.2487L22.6941 19.7737H17V14.3491C17 14.073 16.7761 13.8491 16.5 13.8491H15.5C15.2239 13.8491 15 14.073 15 14.3491V19.7737H10.0235C9.75703 19.7737 9.5374 19.5648 9.52409 19.2987L9.07159 10.2487Z" fill="#8A8B8F"/>
</g>
<defs>
<filter id="filter0_d_5_251" x="0.5" y="0.849121" width="31.2419" height="28.9246" filterUnits="userSpaceOnUse" color-interpolation-filters="sRGB">
<feFlood flood-opacity="0" result="BackgroundImageFix"/>
<feColorMatrix in="SourceAlpha" type="matrix" values="0 0 0 0 0 0 0 0 0 0 0 0 0 0 0 0 0 0 127 0" result="hardAlpha"/>
<feOffset dy="4"/>
<feGaussianBlur stdDeviation="2"/>
<feComposite in2="hardAlpha" operator="out"/>
<feColorMatrix type="matrix" values="0 0 0 0 0 0 0 0 0 0 0 0 0 0 0 0 0 0 0.25 0"/>
<feBlend mode="normal" in2="BackgroundImageFix" result="effect1_dropShadow_5_251"/>
<feBlend mode="normal" in="SourceGraphic" in2="effect1_dropShadow_5_251" result="shape"/>
</filter>
</defs>
</svg>
