<svg width="20" height="22" viewBox="0 0 20 22" fill="none" xmlns="http://www.w3.org/2000/svg">
<path d="M6.5 8.84912C6.22386 8.84912 6 9.07298 6 9.34912V10.3491C6 10.6253 6.22386 10.8491 6.5 10.8491H13.5C13.7761 10.8491 14 10.6253 14 10.3491V9.34912C14 9.07298 13.7761 8.84912 13.5 8.84912H6.5Z" fill="white"/>
<path fill-rule="evenodd" clip-rule="evenodd" d="M2 0.849121C0.895431 0.849121 0 1.74455 0 2.84912V15.8491C0 16.9537 0.895431 17.8491 2 17.8491H6.54007L9.23785 21.0251C9.6372 21.4952 10.3628 21.4952 10.7621 21.0251L13.4599 17.8491H18C19.1046 17.8491 20 16.9537 20 15.8491V2.84912C20 1.74455 19.1046 0.849121 18 0.849121H2ZM2 15.8491V2.84912H18V15.8491H13.0037C12.7096 15.8491 12.4305 15.9785 12.2405 16.2029L10 18.8491L7.75951 16.2029C7.56951 15.9785 7.29037 15.8491 6.99633 15.8491H2Z" fill="white"/>
</svg>
