<svg width="20" height="22" viewBox="0 0 20 22" fill="none" xmlns="http://www.w3.org/2000/svg">
<path fill-rule="evenodd" clip-rule="evenodd" d="M0 2.84912C0 1.74455 0.895431 0.849121 2 0.849121H18C19.1046 0.849121 20 1.74455 20 2.84912V15.8491C20 16.9537 19.1046 17.8491 18 17.8491H13.4599L10.7621 21.0251C10.3628 21.4952 9.6372 21.4952 9.23785 21.0251L6.54007 17.8491H2C0.895431 17.8491 0 16.9537 0 15.8491V2.84912ZM6 9.34912C6 9.07298 6.22386 8.84912 6.5 8.84912H13.5C13.7761 8.84912 14 9.07298 14 9.34912V10.3491C14 10.6253 13.7761 10.8491 13.5 10.8491H6.5C6.22386 10.8491 6 10.6253 6 10.3491V9.34912Z" fill="#161722"/>
</svg>
