<svg width="43" height="36" viewBox="0 0 43 36" fill="none" xmlns="http://www.w3.org/2000/svg">
<g filter="url(#filter0_d_5_969)">
<path d="M37.9988 18.9337C38.4285 18.5456 38.4399 17.8748 38.0236 17.4724L24.7382 4.63207C24.1035 4.01862 23.0432 4.4684 23.0432 5.35111V10.7112C18.0772 10.6345 14.3463 11.9333 11.5737 13.9238C8.75779 15.9453 6.9636 18.6561 5.858 21.2836C4.75341 23.9086 4.32774 26.4694 4.25995 28.2252C4.22652 29.0911 4.27816 29.8058 4.40223 30.2424C4.43394 30.354 4.47678 30.4711 4.53837 30.5746C4.59258 30.6658 4.70727 30.8245 4.91565 30.8908C5.16639 30.9706 5.37921 30.8682 5.50256 30.7623C5.61389 30.6667 5.6887 30.5435 5.74047 30.4399L5.74705 30.4268L5.75234 30.4144L5.75284 30.4133L5.75411 30.4104L5.76432 30.3882C5.77418 30.3671 5.79023 30.3336 5.81294 30.2891C5.85837 30.2 5.93042 30.0665 6.03287 29.8981C6.23783 29.5614 6.56409 29.0861 7.04199 28.5485C7.99659 27.4746 9.55921 26.1485 11.979 25.1805C13.3564 24.6296 15.6523 24.3789 17.9033 24.3383C20.0514 24.2995 22.0549 24.4532 23.0432 24.6711V30.1884C23.0432 31.0549 24.0703 31.5113 24.7134 30.9305L37.9988 18.9337Z" fill="#FBFBFB"/>
<path d="M33.906 17.5065C34.8657 16.391 33.906 14.7997 33.906 14.7997L32.25 11.896L24.7382 4.63207C24.1035 4.01862 23.0432 4.4684 23.0432 5.35111V10.7112C18.0772 10.6345 14.3463 11.9333 11.5737 13.9238C8.75779 15.9453 6.9636 18.6561 5.858 21.2836C4.75341 23.9086 4.32774 26.4694 4.25995 28.2252C4.22652 29.0911 4.27816 29.8058 4.40223 30.2424C4.43394 30.354 4.47678 30.4711 4.53837 30.5746C4.59258 30.6658 4.70727 30.8245 4.91565 30.8908C5.16639 30.9706 5.37921 30.8682 5.50256 30.7623C5.61389 30.6667 5.6887 30.5435 5.74047 30.4399L5.74705 30.4268L5.75234 30.4144L5.75284 30.4133L5.75411 30.4104L5.76432 30.3882C5.77418 30.3671 5.79023 30.3336 5.81294 30.2891C5.85837 30.2 5.93042 30.0665 6.03287 29.8981C6.23783 29.5614 6.56409 29.0861 7.04199 28.5485C7.99659 27.4746 13.2932 23.7163 16.2932 22.2163C18.7932 20.7163 23.0432 19.7163 23.0432 19.7163V25.7163C23.0432 26.5829 24.0703 27.0393 24.7134 26.4585L33.906 17.5065Z" fill="white"/>
</g>
<defs>
<filter id="filter0_d_5_969" x="0.25" y="0.679121" width="42.0786" height="34.8412" filterUnits="userSpaceOnUse" color-interpolation-filters="sRGB">
<feFlood flood-opacity="0" result="BackgroundImageFix"/>
<feColorMatrix in="SourceAlpha" type="matrix" values="0 0 0 0 0 0 0 0 0 0 0 0 0 0 0 0 0 0 127 0" result="hardAlpha"/>
<feOffset dy="0.33"/>
<feGaussianBlur stdDeviation="2"/>
<feColorMatrix type="matrix" values="0 0 0 0 0 0 0 0 0 0 0 0 0 0 0 0 0 0 0.1 0"/>
<feBlend mode="normal" in2="BackgroundImageFix" result="effect1_dropShadow_5_969"/>
<feBlend mode="normal" in="SourceGraphic" in2="effect1_dropShadow_5_969" result="shape"/>
</filter>
</defs>
</svg>
